<svg id="a2e06218-e96d-4c0e-9172-a2c40d8537b4" data-name="Layer 1" xmlns="http://www.w3.org/2000/svg" viewBox="0 0 358.22 339.11"><path d="M3.5.5c10,14,34.19,29.73,48.5,33.93s31,2.7,42.4-6.85c5.64-4.7,9.69-13.65,4.75-19.09-4-4.38-11.81-3.12-15.61,1.42S79.28,21,80.48,26.79c3.21,15.48,16.8,27.34,31.89,32s31.44,3.26,46.87-.14c25-5.52,48.66-15.95,73.13-23.54S283.15,22.8,308,29c10.57,2.63,21,7.49,27.87,16A63.36,63.36,0,0,1,349.5,80.5c1,20-5.58,39.69-15,55-9.2,14.95-21,31.66-33,43C273,205.37,238.38,222.31,203.44,240c-27.58,13.93-57.94,21.42-88.3,27.11-25.36,4.76-51.13,8.36-76.91,7.19-11.54-.52-23.36-2.1-33.51-7.62-8.68-4.73-16.18-16.12-10.17-24,3.2-4.18,9-5.37,14.27-5.29,11,.15,21.46,4.42,30.91,9.94,22.81,13.32,40.42,33.73,59.58,51.91s41.65,35,67.88,38.1c16.83,2,34.93,2.51,51.31-1.85,14.49-3.85,26.8-9.89,40-17,13-7,20.92-16.5,28-25,5-6,10.11-13.46,12-21,6.55-26.19,3-52.9-19.79-71.93C258.5,183.7,234.91,171.7,210,163.24c-2.64-.89-5.46-1.9-7.1-4.16-1.48-2-1.7-4.7-1.75-7.21A75,75,0,0,1,207,121.54c2.17-5.16,5.26-10.41,10.38-12.69,8.52-3.8,19.09,3.3,21,12.43s-3,18.62-10,24.72-16,9.47-24.76,12.72A51.65,51.65,0,0,1,251,172.29" transform="translate(8.12 -0.21)" style="fill:none;stroke:#000;stroke-miterlimit:10"/></svg>