<svg id="e03eca37-84ec-4373-99bf-1dafc4223237" data-name="Layer 1" xmlns="http://www.w3.org/2000/svg" viewBox="0 0 335.99 278.89"><path d="M345,45c-2-11.24-11.71-20.63-23.39-25.15s-25-4.66-37.49-2.49c-16.4,2.86-32.37,10-42.57,21.78-12.76,14.8-14.93,34.5-20.67,52.46-7.94,24.82-25.27,48.91-52.09,58.47-23.73,8.47-50.49,4.32-75.88,7-24.41,2.52-48.47,12-64.57,28.56S5.23,226.36,13.47,247.07c7,17.62,24.07,31.05,43.34,38.31s40.62,8.93,61.52,8.43c36.46-.88,73.11-8.31,104.86-24.38s58.31-41.15,71.44-71.59,11.92-66.2-6.15-94.54C271.38,76.46,240.24,57.79,206.55,51S137,48.91,105.3,61.23c-13.76,5.36-27,12.23-37.67,21.63C58.32,91,50.8,101.71,50.69,113.37c-.14,15.89,14,29.84,30.73,35.28s35.25,3.87,52.54.21c10.43-2.21,22.5-7,23.77-16.51.9-6.76-4.3-12.9-9.72-17.69-4-3.49-8.34-6.8-13.61-8.37s-11.63-1.05-15.63,2.4c-7.08,6.12-3,17.31,4.37,23.16a40,40,0,0,0,30,7.8c-23.22,13-40.4,34.41-46.81,58.25" transform="translate(-9.5 -15.5)" style="fill:none;stroke:#000;stroke-miterlimit:10"/></svg>