<svg id="a1abfdb4-522d-4e15-8dae-fcf56ae15292" data-name="Layer 1" xmlns="http://www.w3.org/2000/svg" viewBox="0 0 362.1 262.77"><path d="M-5.51,18.63C-2.4,43.25,13.07,67.05,36.54,76.25s54.08.5,65.65-21.62c3.39-6.5,5.08-14.35,2.26-21.08s-11.24-11.37-18-8.39c-8.34,3.67-9.09,15.38-5.48,23.6,5,11.39,15.52,19.82,27.19,24.57s24.49,6.2,37.14,6.61c55.62,1.82,110-15,163.26-31,13-3.9,28.69-7.27,38.88,1.5,9.34,8,9.08,22.26,7,34.33-4.68,27.66-15.06,54.84-33,76.69s-44,38-72.43,41.16c-15.12,1.7-30.42-.23-45.38-2.93-49.37-8.91-97.47-26.29-147.68-27.64-7.17-.19-14.54,0-21.22,2.59S22.11,182.75,21,189.7c-.76,4.56.56,9.2,2.29,13.48,11.12,27.46,38.38,45.2,65.8,57.43,24.38,10.86,50.45,18.84,77.23,20.08s54.41-4.64,76.6-19.51c4.87-3.25,9.75-7.38,11-13,1-4.56-.58-9.25-2.38-13.56-17.1-41.06-53.82-70.38-86.94-100.55-2.32-2.12-4.76-4.46-5.35-7.52s.8-6.1,2.14-8.91C165,110,169,101.9,176.17,97.18s18.52-4.41,22.89,2.86c3.91,6.51.54,15-4.37,20.87a47.7,47.7,0,0,1-39,16.53c21.85-9.53,50.12-1.15,62.84,18.61" transform="translate(6.01 -18.57)" style="fill:none;stroke:#000;stroke-miterlimit:10"/></svg>