<?xml version="1.0" encoding="UTF-8"?>
<svg enable-background="new 0 0 500 300" version="1.1" viewBox="0 0 500 300" xml:space="preserve" xmlns="http://www.w3.org/2000/svg" xmlns:cc="http://creativecommons.org/ns#" xmlns:dc="http://purl.org/dc/elements/1.1/" xmlns:rdf="http://www.w3.org/1999/02/22-rdf-syntax-ns#"><metadata><rdf:RDF><cc:Work rdf:about=""><dc:format>image/svg+xml</dc:format><dc:type rdf:resource="http://purl.org/dc/dcmitype/StillImage"/><dc:title/></cc:Work></rdf:RDF></metadata>

	
		<path d="m391.99 31.187c8.297 0.593 16.18 3.753 21.631 10.202 4.612 5.455 6.884 12.648 6.705 19.748-0.186 7.362-3.039 14.433-7.984 19.883-4.912 5.413-11.238 9.199-17.149 13.392-5.849 4.149-11.425 8.803-14.746 15.3-2.996 5.862-3.887 12.475-3.298 18.986 1.27 14.037 7.802 26.946 12.519 40.03 2.352 6.524 4.419 13.263 4.544 20.253 0.138 7.726-2.038 15.269-6.289 21.724-4.465 6.779-11.016 12.099-17.967 16.169-7.311 4.281-15.385 7.239-23.71 8.793-8.048 1.502-16.46 1.378-24.323-1.024-4.007-1.224-7.803-3.056-11.262-5.42-3.193-2.182-6.072-4.83-8.977-7.374-5.22-4.57-10.551-9.199-17.019-11.907-7.504-3.141-15.596-2.713-23.451-1.274-9.213 1.688-18.045 4.988-26.711 8.459-8.531 3.417-17.019 6.942-25.59 10.259-15.392 5.955-31.341 11.217-47.964 11.846-13.366 0.505-27.234-1.699-38.904-8.533-12.323-7.216-21.487-19.713-23.024-34.093-1.625-15.201 4.028-30.411 11.973-43.13 8.28-13.258 19.674-24.289 33.065-32.331 13.851-8.318 29.466-13.406 45.414-15.746 18.491-2.713 37.239-0.703 55.789-2.597 8.612-0.879 17.002-2.717 25.038-5.978 7.892-3.202 15.286-7.477 22.166-12.484 11.599-8.442 21.407-18.995 32.089-28.507 10.398-9.259 22.061-17.879 35.981-20.7 3.139-0.636 6.356-0.923 9.534-1.306 4.75-0.572 9.5-1.143 14.25-1.715 2.555-0.31 5.112-0.618 7.67-0.925 1.893-0.228 1.916-3.231 0-3-7.637 0.919-15.274 1.838-22.911 2.757-3.705 0.446-7.43 0.807-11.067 1.674-6.768 1.614-13.163 4.59-19.033 8.292-12.505 7.887-22.792 18.711-33.583 28.685-11.864 10.965-24.928 20.718-40.367 26.007-18.59 6.37-38.464 4.751-57.784 5.332-16.609 0.499-33.124 3.355-48.57 9.617-14.969 6.069-28.752 15.155-39.586 27.202-10.314 11.469-18.563 25.598-21.885 40.758-1.61 7.348-1.989 14.976-0.547 22.384 1.441 7.402 4.833 14.185 9.519 20.058 8.692 10.895 21.621 17.358 35.152 19.894 33.762 6.326 65.597-9.652 96.135-21.691 8.843-3.486 17.932-6.728 27.385-8.062 4.303-0.607 8.797-0.914 13.09-0.08 3.569 0.693 6.913 2.083 10.024 3.949 6.333 3.8 11.535 9.16 17.211 13.821 6.374 5.234 13.753 8.793 21.918 10.142 16.625 2.747 34.632-2.618 48.389-12.002 6.606-4.506 12.587-10.143 16.53-17.166 3.793-6.756 5.554-14.518 5.15-22.249-0.376-7.191-2.577-14.104-5.048-20.814-2.52-6.842-5.38-13.557-7.753-20.454-4.42-12.848-7.445-27.698 1.436-39.417 4.649-6.135 11.47-10.162 17.68-14.509 5.882-4.117 11.605-8.691 15.29-14.973 7.49-12.772 5.637-30.092-5.211-40.397-5.861-5.568-13.607-8.191-21.563-8.76-1.927-0.136-1.919 2.865-1e-3 3.002z"/>
	

</svg>
