<svg id="ed7dd16d-8544-4380-a244-7bb35a620150" data-name="Layer 3" xmlns="http://www.w3.org/2000/svg" viewBox="0 0 271.11 196.23"><path d="M174,231c-3.61,7.41-5.93,12.19-6,19s2,16,2,16l0,0c-2.6,1.27-5.56.11-6,0-3.11-1-18,5.63-30,21-3.88,5-12.7,16.42-15,34-.91,6.93-2.21,19.33,4,33,5,11,18,23,29,26,5.32,1.45,12.94,4.73,29,5s29.61-2,54-8c35.88-8.88,60.4-17.34,68-20,33.46-11.72,43.3-17.64,48-21,14-10,27-21,32-34s1-28-3-42c-1.4-4.89-9.63-22.76-29-33a61.83,61.83,0,0,0-25-7h0s-12.12-4.36-22-1a21.66,21.66,0,0,0-7,4l-3-4.5-3-4.5s-8-9-17-14a46,46,0,0,0-15-5c-7.24-1.37-47.27-8.93-71,15C180.57,217.49,176.09,226.71,174,231Z" transform="translate(-116.23 -190.79)" style="fill:none;stroke:#690000;stroke-miterlimit:10;stroke-width:4px"/><path d="M236.87,330.06c2.83.83,5.51,1.69,8.28,2.25a24.39,24.39,0,0,0,4.17.44,21.09,21.09,0,0,0,4.13-.27,18.46,18.46,0,0,0,3.94-1.11,15.74,15.74,0,0,0,3.5-2.05,14.64,14.64,0,0,0,2.8-3,15,15,0,0,0,2.14-3.61l2,.76a24.4,24.4,0,0,1-1.94,4.35,18.11,18.11,0,0,1-3.17,3.67,19,19,0,0,1-4.1,2.64,19.4,19.4,0,0,1-4.61,1.49,24.48,24.48,0,0,1-9.5-.15,20.23,20.23,0,0,1-8.53-3.77Z" transform="translate(-116.23 -190.79)" style="fill:#690000"/><circle cx="89.77" cy="138.21" r="9" style="fill:#690000;stroke:#690000;stroke-miterlimit:10;stroke-width:4px"/><circle cx="176.77" cy="114.21" r="9" style="fill:#690000;stroke:#690000;stroke-miterlimit:10;stroke-width:4px"/><path d="M258.12,315.48c.46,1.59-2.83,3.93-7.34,5.23s-8.54,1.06-9-.53,2.83-3.94,7.34-5.23S257.66,313.89,258.12,315.48Z" transform="translate(-116.23 -190.79)" style="fill:#690000;stroke:#690000;stroke-miterlimit:10;stroke-width:4px"/><circle cx="89.77" cy="138.21" r="9" style="fill:#690000;stroke:#690000;stroke-miterlimit:10;stroke-width:4px"/><circle cx="176.77" cy="114.21" r="9" style="fill:#690000;stroke:#690000;stroke-miterlimit:10;stroke-width:4px"/><path d="M258.12,315.48c.46,1.59-2.83,3.93-7.34,5.23s-8.54,1.06-9-.53,2.83-3.94,7.34-5.23S257.66,313.89,258.12,315.48Z" transform="translate(-116.23 -190.79)" style="fill:#690000;stroke:#690000;stroke-miterlimit:10;stroke-width:4px"/></svg>